<svg height="96" width="96" xmlns="http://www.w3.org/2000/svg" xmlns:xlink="http://www.w3.org/1999/xlink"><linearGradient id="a"><stop offset="0" stop-color="#fefefe"/><stop offset="1" stop-color="#fefefe" stop-opacity="0"/></linearGradient><linearGradient id="b" gradientUnits="userSpaceOnUse" x1="36.357143" x2="36.357143" xlink:href="#a" y1="6" y2="63.893143"/><filter id="c" color-interpolation-filters="sRGB" height="1.384" width="1.384" x="-.192" y="-.192"><feGaussianBlur stdDeviation="5.28"/></filter><linearGradient id="d" gradientUnits="userSpaceOnUse" x1="48" x2="48" xlink:href="#a" y1="20.220806" y2="138.66119"/><radialGradient id="e" cx="48" cy="90.171875" gradientTransform="matrix(1.1573129 0 0 .99590774 -7.551021 .197132)" gradientUnits="userSpaceOnUse" r="42" xlink:href="#a"/><clipPath id="f"><rect height="84" rx="6" width="84" x="6" y="6"/></clipPath><linearGradient id="g" gradientUnits="userSpaceOnUse" x1="48.203388" x2="48" y1="60.508476" y2="5.987717"><stop offset="0" stop-color="#fefefe"/><stop offset="1" stop-color="#f859ff"/></linearGradient><linearGradient id="h" gradientTransform="matrix(1.0058652 0 0 .994169 100 0)" gradientUnits="userSpaceOnUse" x1="45.447727" x2="45.447727" y1="92.539597" y2="7.01654"><stop offset="0"/><stop offset="1" stop-opacity=".588235"/></linearGradient><linearGradient id="i" gradientTransform="matrix(1.0238095 0 0 1.0119048 -1.142857 -98.071429)" gradientUnits="userSpaceOnUse" x1="32.251034" x2="32.251034" xlink:href="#h" y1="6.131708" y2="90.238609"/><linearGradient id="j" gradientTransform="translate(0 -97)" gradientUnits="userSpaceOnUse" x1="32.251034" x2="32.251034" xlink:href="#h" y1="6.131708" y2="90.238609"/><linearGradient id="k" gradientUnits="userSpaceOnUse" x1="137.2847" x2="44.373375" y1="-52.85921" y2="-68.85021"><stop offset="0" stop-color="#5596ea"/><stop offset=".54491889" stop-color="#5596ea" stop-opacity=".498039"/><stop offset="1" stop-color="#5596ea" stop-opacity="0"/></linearGradient><filter id="l" color-interpolation-filters="sRGB" height="1.5" width="1.5" x="-.25" y="-.25"><feGaussianBlur result="result1" stdDeviation="5"/><feTurbulence baseFrequency=".1" numOctaves="1" result="result2" seed="0" type="fractalNoise"/><feDisplacementMap in="result1" in2="result2" result="result3" scale="5" xChannelSelector="R" yChannelSelector="G"/><feComposite in2="result3" operator="atop"/></filter><linearGradient id="m" gradientUnits="userSpaceOnUse" x1="60.859405" x2="19.236337" y1="34.045902" y2="86.813614"><stop offset="0" stop-color="#fefefe" stop-opacity=".032922"/><stop offset="1" stop-color="#00d2ff"/></linearGradient><linearGradient id="n" gradientUnits="userSpaceOnUse" x1="-51.004985" x2="-72.289069" y1="53.97811" y2="78.067851"><stop offset="0" stop-color="#fefefe" stop-opacity=".032922"/><stop offset="1" stop-color="#ffd242"/></linearGradient><radialGradient id="o" cx="23" cy="12.811336" fx="22.305519" fy="9.10744" gradientTransform="matrix(1.0184108 -3.1841855 2.3318057 .80481645 -17.968307 116.99617)" gradientUnits="userSpaceOnUse" r="4"><stop offset="0" stop-color="#6b6b6b"/><stop offset="1"/></radialGradient><linearGradient id="p" gradientTransform="matrix(.56636537 0 0 .56555249 -49.793038 -110.26342)" gradientUnits="userSpaceOnUse" x1="-10.467957" x2="35.450733" y1="69.255058" y2="69.255058"><stop offset="0" stop-color="#fecd74"/><stop offset="1" stop-color="#c2862f" stop-opacity="0"/></linearGradient><filter id="q"><feGaussianBlur stdDeviation=".24162039"/></filter><linearGradient id="r" gradientUnits="userSpaceOnUse" x1="46.47039" x2="53.546238" y1="41.643164" y2="48.718863"><stop offset="0" stop-color="#e1e0e0"/><stop offset=".5" stop-color="#3d3d3d"/><stop offset="1" stop-color="#828282"/></linearGradient><radialGradient id="s" cx="-6.119522" cy="50.772907" gradientTransform="matrix(1 0 0 1.0227272 0 -1.153927)" gradientUnits="userSpaceOnUse" r="4.207171" xlink:href="#a"/><g fill="url(#i)"><path d="m12-95.03125c-5.5110903 0-10.03125 4.52016-10.03125 10.03125v71c0 5.5110902 4.5201598 10.03125 10.03125 10.03125h72c5.51109 0 10.03125-4.5201597 10.03125-10.03125v-71c0-5.51109-4.52016-10.03125-10.03125-10.03125z" opacity=".08" transform="scale(1 -1)"/><path d="m12-94.03125c-4.971633 0-9.03125 4.059617-9.03125 9.03125v71c0 4.9716329 4.0596171 9.03125 9.03125 9.03125h72c4.971633 0 9.03125-4.059617 9.03125-9.03125v-71c0-4.971633-4.059617-9.03125-9.03125-9.03125z" opacity=".1" transform="scale(1 -1)"/><path d="m12-93c-4.4091333 0-8 3.590867-8 8v71c0 4.4091333 3.5908667 8 8 8h72c4.409133 0 8-3.5908667 8-8v-71c0-4.409133-3.590867-8-8-8z" opacity=".2" transform="scale(1 -1)"/><rect height="85" opacity=".3" rx="7" transform="scale(1 -1)" width="86" x="5" y="-92"/></g><rect fill="url(#j)" height="84" opacity=".45" rx="6" transform="scale(1 -1)" width="84" x="6" y="-91"/><g transform="translate(0 1)"><rect fill="url(#g)" height="84" rx="6" width="84" x="6" y="6"/><rect fill="url(#n)" height="84" rx="6" transform="scale(-1 1)" width="84" x="-90" y="6.000003"/><rect fill="url(#m)" height="84" rx="6" width="84" x="6" y="6"/><path d="m12 6c-3.324 0-6 2.676-6 6v2 68 2c0 .334721.04135.6507.09375.96875.0487.295596.09704.596915.1875.875.00988.03038.020892.0636.03125.09375.098865.287771.2348802.547452.375.8125.1445918.273507.3156161.535615.5.78125s.3737765.473472.59375.6875c.439947.428056.94291.814526 1.5 1.09375.278545.139612.5734731.246947.875.34375-.2562018-.100222-.4867109-.236272-.71875-.375-.00741-.0044-.023866.0045-.03125 0-.031933-.0193-.062293-.04251-.09375-.0625-.120395-.0767-.2310226-.163513-.34375-.25-.1061728-.0808-.2132809-.161112-.3125-.25-.1779299-.161433-.3474596-.345388-.5-.53125-.1075789-.130255-.2183939-.265285-.3125-.40625-.025089-.03838-.038446-.08587-.0625-.125-.064763-.103032-.1302275-.204517-.1875-.3125-.1010083-.194706-.2056748-.415701-.28125-.625-.00796-.02181-.023589-.04055-.03125-.0625-.0318251-.09195-.0358045-.186831-.0625-.28125-.0303323-.106618-.0703894-.203031-.09375-.3125-.0728786-.341512-.125-.698205-.125-1.0625v-2-68-2c0-2.781848 2.2181517-5 5-5h2 68 2c2.781848 0 5 2.218152 5 5v2 68 2c0 .364295-.05212.720988-.125 1.0625-.04415.206893-.08838.397658-.15625.59375-.0077.02195-.0233.04069-.03125.0625-.06274.173739-.138383.367449-.21875.53125-.04158.0828-.07904.169954-.125.25-.0546.09721-.126774.18835-.1875.28125-.09411.140965-.204921.275995-.3125.40625-.143174.17445-.303141.346998-.46875.5-.01117.0102-.01998.02115-.03125.03125-.138386.125556-.285091.234436-.4375.34375-.102571.07315-.204318.153364-.3125.21875-.0074.0045-.02384-.0044-.03125 0-.232039.138728-.462548.274778-.71875.375.301527-.0968.596455-.204138.875-.34375.55709-.279224 1.060053-.665694 1.5-1.09375.219973-.214028.409366-.441865.59375-.6875s.355408-.507743.5-.78125c.14012-.265048.276135-.524729.375-.8125.01041-.03078.02133-.06274.03125-.09375.09046-.278085.1388-.579404.1875-.875.0524-.31805.09375-.634029.09375-.96875v-2-68-2c0-3.324-2.676-6-6-6z" fill="url(#b)" opacity=".5"/><path d="m12 90c-3.324 0-6-2.676-6-6v-2-68-2c0-.334721.04135-.6507.09375-.96875.0487-.295596.09704-.596915.1875-.875.00988-.03038.020892-.0636.03125-.09375.098865-.287771.2348802-.547452.375-.8125.1445918-.273507.3156161-.535615.5-.78125s.3737765-.473472.59375-.6875c.439947-.428056.94291-.814526 1.5-1.09375.278545-.139612.5734731-.246947.875-.34375-.2562018.100222-.4867109.236272-.71875.375-.00741.0044-.023866-.0045-.03125 0-.031933.0193-.062293.04251-.09375.0625-.120395.0767-.2310226.163513-.34375.25-.1061728.0808-.2132809.161112-.3125.25-.1779299.161433-.3474596.345388-.5.53125-.1075789.130255-.2183939.265285-.3125.40625-.025089.03838-.038446.08587-.0625.125-.064763.103032-.1302275.204517-.1875.3125-.1010083.194706-.2056748.415701-.28125.625-.00796.02181-.023589.04055-.03125.0625-.0318251.09195-.0358045.186831-.0625.28125-.0303323.106618-.0703894.203031-.09375.3125-.0728786.341512-.125.698205-.125 1.0625v2 68 2c0 2.781848 2.2181517 5 5 5h2 68 2c2.781848 0 5-2.218152 5-5v-2-68-2c0-.364295-.05212-.720988-.125-1.0625-.04415-.206893-.08838-.397658-.15625-.59375-.0077-.02195-.0233-.04069-.03125-.0625-.06274-.173739-.138383-.367449-.21875-.53125-.04158-.0828-.07904-.169954-.125-.25-.0546-.09721-.126774-.18835-.1875-.28125-.09411-.140965-.204921-.275995-.3125-.40625-.143174-.17445-.303141-.346998-.46875-.5-.01117-.0102-.01998-.02115-.03125-.03125-.138386-.125556-.285091-.234436-.4375-.34375-.102571-.07315-.204318-.153364-.3125-.21875-.0074-.0045-.02384.0044-.03125 0-.232039-.138728-.462548-.274778-.71875-.375.301527.0968.596455.204138.875.34375.55709.279224 1.060053.665694 1.5 1.09375.219973.214028.409366.441865.59375.6875s.355408.507743.5.78125c.14012.265048.276135.524729.375.8125.01041.03078.02133.06274.03125.09375.09046.278085.1388.579404.1875.875.0524.31805.09375.634029.09375.96875v2 68 2c0 3.324-2.676 6-6 6z" fill="url(#e)" opacity=".2"/></g><rect height="66" rx="12" style="opacity:.1;stroke:#fefefe;stroke-width:.5;stroke-linecap:round;clip-path:url(#f);fill:url(#d);filter:url(#c)" width="66" x="15" y="15"/><g transform="matrix(.10554633594 0 0 .10554633594 114.291554375 68.76986246875)"><path d="m30.775098-113.05463-6.587598 43.96088c20.534064 28.391815 43.083282 40.256893 81.10261 42.971703 38.01932 2.71481 89.4612-18.193535 68.75615-52.115527-17.70287-29.003396-70.87648 1.851902-63.95251 11.581324 10.68651 15.016469-21.124887 18.108523-40.249016 7.539493-19.75411-10.917192-35.432634-36.200014-39.069636-53.937873zm62.658711 39.92434c-4.559339 0-8.25 2.12549-8.25 4.75s3.690661 4.75 8.25 4.75 8.250001-2.12549 8.250001-4.75-3.690662-4.75-8.250001-4.75z" fill="url(#k)" filter="url(#l)" transform="matrix(3.4641016 2 -2 3.4641016 -1142.0919 -89.123057)"/><g transform="matrix(-9.4745117 0 0 9.4745117 -203.69851 -640.30965)"><path d="m42.876333 61.6482c-5.571393 3.837953-14.92864 3.219582-14.92864 3.219582 5.384166-4.199176 3.287445-9.373198 6.137389-13.79229 1.441714 5.868136 4.181327 8.514548 8.791251 10.572708z" fill="#3465a4" fill-rule="evenodd" stroke="#729fcf"/><path d="m48.363936 47.423139c3.114686 4.646055 1.303267 9.76376-4.340268 13.651331-5.571318 3.837978-14.928565 3.219607-14.928565 3.219607 5.384166-4.199176 3.936389-10.984062 6.786339-15.403151 3.756357-5.824541 10.251057-4.796336 12.482494-1.467787z" fill="url(#o)" fill-rule="evenodd" stroke="#2e3436" stroke-width="1.6"/><rect fill="#c17d11" height="7.691964" ry="3.845982" stroke="#8f5902" stroke-dashoffset="1.96" stroke-linecap="round" stroke-width="1.40076" transform="matrix(.69084069 -.72300701 .75439359 .65642236 0 0)" width="45.91869" x="-6.145136" y="63.478382"/><rect fill="url(#p)" filter="url(#q)" height="4.350209" ry="2.175105" transform="matrix(-.69573391 .7182996 -.5377264 -.8431194 0 -3.245367)" width="26.006758" x="-55.721729" y="-73.271156"/><path d="m52.688246 36.727492-8.5 8.90625c-1.47196 1.540492-1.35737 3.913878.25 5.3125s4.09054 1.259242 5.5625-.28125l9.15625-9.5625c-1.59626 1.001366-3.77234.888932-5.25-.375-1.22383-1.046818-1.63053-2.59663-1.21875-4z" fill="url(#r)" stroke="#48453f" stroke-dashoffset="1.96" stroke-linecap="round" stroke-width="1.4"/><ellipse cx="-6.119522" cy="50.772907" fill="url(#s)" opacity=".608911" rx="4.207171" ry="4.302789" transform="matrix(.64734342 .27808415 -.37715786 .87797401 62.218404 7.902986)"/><g fill="#fefefe"><ellipse cx="-10.422311" cy="40.924301" rx="1.243028" ry="1.529881" transform="matrix(.80769231 0 0 .65625001 35.047503 32.19288)"/><ellipse cx="-10.422311" cy="40.924301" opacity=".782178" rx="1.243028" ry="1.529881" transform="matrix(.24474823 .18647484 -.60604321 .79543173 65.790984 18.448432)"/><ellipse cx="-10.422311" cy="40.924301" opacity=".851485" rx="1.243028" ry="1.529881" transform="matrix(.30468786 .27281849 -.75446515 1.1637413 72.441949 5.614165)"/><ellipse cx="-10.422311" cy="40.924301" opacity=".782178" rx="1.243028" ry="1.529881" transform="matrix(.24474823 .18647484 -.60604321 .79543173 66.651542 19.978312)"/><ellipse cx="-10.422311" cy="40.924301" rx="1.243028" ry="1.529881" transform="matrix(1.0449718 -.58247669 -1.9996078 2.1633585 141.72756 -51.045271)"/><ellipse cx="-10.422311" cy="40.924301" rx="1.243028" ry="1.529881" transform="matrix(.65384616 0 0 .53125001 59.356423 18.280528)"/></g></g></g></svg>