<svg viewBox="0 0 400 300" xmlns="http://www.w3.org/2000/svg"><path d="m95.48 188.56h209a0 0 0 0 1 0 0v6.06a9.31 9.31 0 0 1 -9.31 9.31h-190.38a9.31 9.31 0 0 1 -9.31-9.31v-6.06a0 0 0 0 1 0 0z" fill="#68e1fd"/><path d="m295.21 204.93h-190.42a10.33 10.33 0 0 1 -10.31-10.31v-6.06a1 1 0 0 1 1-1h209a1 1 0 0 1 1 1v6.06a10.33 10.33 0 0 1 -10.27 10.31zm-198.73-15.37v5.06a8.32 8.32 0 0 0 8.31 8.31h190.42a8.32 8.32 0 0 0 8.31-8.31v-5.06z" fill="#093f68"/><path d="m117.84 82h164.32a8.26 8.26 0 0 1 8.26 8.26v98.26a0 0 0 0 1 0 0h-180.85a0 0 0 0 1 0 0v-98.22a8.26 8.26 0 0 1 8.27-8.3z" fill="#68e1fd"/><path d="m290.43 189.56h-180.86a1 1 0 0 1 -1-1v-98.26a9.28 9.28 0 0 1 9.26-9.3h164.34a9.28 9.28 0 0 1 9.26 9.27v98.26a1 1 0 0 1 -1 1.03zm-179.86-2h178.86v-97.26a7.27 7.27 0 0 0 -7.26-7.3h-164.34a7.27 7.27 0 0 0 -7.26 7.27z" fill="#093f68"/><rect fill="#fff" height="82.08" rx="2.32" width="153.81" x="123.09" y="94.57"/><path d="m274.59 177.65h-149.18a3.32 3.32 0 0 1 -3.32-3.32v-77.44a3.32 3.32 0 0 1 3.32-3.32h149.18a3.32 3.32 0 0 1 3.32 3.32v77.44a3.32 3.32 0 0 1 -3.32 3.32zm-149.18-82.08a1.33 1.33 0 0 0 -1.32 1.32v77.44a1.33 1.33 0 0 0 1.32 1.32h149.18a1.33 1.33 0 0 0 1.32-1.32v-77.44a1.33 1.33 0 0 0 -1.32-1.32z" fill="#093f68"/><ellipse cx="200" cy="87.5" fill="#68e1fd" rx="1.21" ry="1.09"/><path d="m200 89.59a2.09 2.09 0 1 1 2.21-2.09 2.16 2.16 0 0 1 -2.21 2.09zm0-2.18c-.14 0-.21.07-.21.09s.07.09.21.09a.12.12 0 1 0 0-.18z" fill="#093f68"/><path d="m210.23 194.07h-20.46a5.23 5.23 0 0 1 -4.24-2.17l-2.42-3.34h33.78l-2.42 3.34a5.23 5.23 0 0 1 -4.24 2.17z" fill="#093f68"/><path d="m210.23 195.07h-20.46a6.27 6.27 0 0 1 -5.05-2.58l-2.42-3.34a1 1 0 0 1 .81-1.59h33.78a1 1 0 0 1 .81 1.59l-2.42 3.34a6.27 6.27 0 0 1 -5.05 2.58zm-25.16-5.51 1.27 1.75a4.25 4.25 0 0 0 3.43 1.76h20.46a4.25 4.25 0 0 0 3.43-1.76l1.27-1.75z" fill="#093f68"/><path d="m189.5 134.86h-55.33a1 1 0 0 1 -1-1v-21.86a1 1 0 0 1 1-1h55.33a1 1 0 0 1 1 1v21.88a1 1 0 0 1 -1 .98zm-54.33-2h53.33v-19.86h-53.33z" fill="#dfeaef"/><path d="m276.91 107.83h-153.35a1 1 0 0 1 0-2h153.35a1 1 0 0 1 0 2z" fill="#093f68"/><g fill="#dfeaef"><path d="m189.5 140.71h-55.33a1 1 0 0 1 0-2h55.33a1 1 0 0 1 0 2z"/><path d="m189.5 146.82h-55.33a1 1 0 0 1 0-2h55.33a1 1 0 0 1 0 2z"/><path d="m144.23 171h-10.06a1 1 0 0 1 -1-1v-5.73a1 1 0 0 1 1-1h10.06a1 1 0 0 1 1 1v5.73a1 1 0 0 1 -1 1zm-9.06-2h8.06v-3.73h-8.06z"/><path d="m159.32 171h-10.06a1 1 0 0 1 -1-1v-13.16a1 1 0 0 1 1-1h10.06a1 1 0 0 1 1 1v13.16a1 1 0 0 1 -1 1zm-9.06-2h8.06v-11.16h-8.06z"/><path d="m174.41 171h-10.06a1 1 0 0 1 -1-1v-17.46a1 1 0 0 1 1-1h10.06a1 1 0 0 1 1 1v17.46a1 1 0 0 1 -1 1zm-9.06-2h8.06v-15.46h-8.06z"/><path d="m189.5 171h-10.06a1 1 0 0 1 -1-1v-12.4a1 1 0 0 1 1-1h10.06a1 1 0 0 1 1 1v12.4a1 1 0 0 1 -1 1zm-9.06-2h8.06v-10.4h-8.06z"/></g><path d="m258.86 165.6h10.11v18.46h-10.11z" fill="#093f68" transform="matrix(-.81674227 .57700265 -.57700265 -.81674227 580.33 165.37)"/><path d="m265.11 186.28a1 1 0 0 1 -.82-.42l-10.65-15.08a1 1 0 0 1 -.17-.74 1 1 0 0 1 .41-.65l8.25-5.83a1 1 0 0 1 1.4.24l10.65 15.08a1 1 0 0 1 -.24 1.39l-8.26 5.83a1 1 0 0 1 -.57.18zm-9.26-15.83 9.5 13.44 6.62-4.68-9.5-13.44z" fill="#093f68"/><path d="m247.82 153.8h15.51v18.46h-15.51z" fill="#ffbc0e" transform="matrix(-.81674227 .57700265 -.57700265 -.81674227 558.38 148.74)"/><path d="m254.57 176a1 1 0 0 1 -.82-.42l-10.65-15.04a1 1 0 0 1 .24-1.39l12.67-9a1 1 0 0 1 1.39.24l10.65 15.08a.93.93 0 0 1 .17.74 1 1 0 0 1 -.41.65l-12.67 9a1 1 0 0 1 -.57.14zm-9.26-15.83 9.5 13.44 11-7.8-9.5-13.44z" fill="#093f68"/><rect fill="#ffbc0e" height="42.29" rx="3.3" transform="matrix(-.81674227 .57700265 -.57700265 -.81674227 622.55 197.35)" width="15.51" x="272.18" y="176.38"/><path d="m286.6 219a4.49 4.49 0 0 1 -.73-.06 4.28 4.28 0 0 1 -2.79-1.76l-20.58-29.18a4.22 4.22 0 0 1 -.73-3.21 4.29 4.29 0 0 1 1.76-2.79l7.27-5.13a4.22 4.22 0 0 1 3.21-.73 4.3 4.3 0 0 1 2.79 1.76l20.58 29.1a4.31 4.31 0 0 1 -1 6l-7.27 5.14a4.28 4.28 0 0 1 -2.51.86zm-13.32-40.89a2.35 2.35 0 0 0 -1.33.42l-7.27 5.14a2.3 2.3 0 0 0 -.55 3.21l20.58 29.12a2.32 2.32 0 0 0 3.21.56l7.28-5.14a2.35 2.35 0 0 0 .94-1.49 2.28 2.28 0 0 0 -.39-1.72l-20.58-29.15a2.33 2.33 0 0 0 -1.89-.98z" fill="#093f68"/><path d="m206.16 156.28a36.47 36.47 0 1 0 8.75-50.82 36.47 36.47 0 0 0 -8.75 50.82z" fill="#ffbc0e"/><path d="m236 172.71a37.93 37.93 0 0 1 -6.44-.55 37.34 37.34 0 1 1 6.44.55zm-.16-72.94a35.47 35.47 0 0 0 -28.84 55.93 35.46 35.46 0 1 0 35-55.41 35.86 35.86 0 0 0 -6.13-.52z" fill="#093f68"/><circle cx="235.95" cy="135.24" fill="#70cc40" r="24.81"/><path d="m236 161.05a25.81 25.81 0 1 1 25.81-25.81 25.84 25.84 0 0 1 -25.81 25.81zm0-49.62a23.81 23.81 0 1 0 23.81 23.81 23.84 23.84 0 0 0 -23.81-23.81z" fill="#093f68"/><path d="m224.18 132.47a2.29 2.29 0 0 0 -1.05-.73 3.77 3.77 0 0 0 -1.26-.24 3 3 0 0 0 -.72.09 2.78 2.78 0 0 0 -.7.25 1.49 1.49 0 0 0 -.53.46 1.28 1.28 0 0 0 .28 1.71 4.69 4.69 0 0 0 1.25.59c.5.17 1 .33 1.61.49a7 7 0 0 1 1.61.7 3.87 3.87 0 0 1 1.24 1.21 3.7 3.7 0 0 1 .49 2 4.7 4.7 0 0 1 -.45 2.12 4.36 4.36 0 0 1 -1.22 1.5 5.26 5.26 0 0 1 -1.79.88 7.85 7.85 0 0 1 -2.14.28 7.76 7.76 0 0 1 -2.63-.43 6.47 6.47 0 0 1 -2.25-1.39l2.27-2.5a3.48 3.48 0 0 0 1.24 1 3.52 3.52 0 0 0 2.34.27 2.57 2.57 0 0 0 .72-.28 1.54 1.54 0 0 0 .51-.45 1.12 1.12 0 0 0 .2-.68 1.22 1.22 0 0 0 -.5-1 4.65 4.65 0 0 0 -1.26-.65c-.51-.18-1.06-.36-1.65-.53a7.77 7.77 0 0 1 -1.64-.72 4.08 4.08 0 0 1 -1.26-1.19 3.44 3.44 0 0 1 -.5-1.95 4.33 4.33 0 0 1 .46-2.05 4.54 4.54 0 0 1 1.23-1.48 5.32 5.32 0 0 1 1.78-.89 7.2 7.2 0 0 1 2.07-.3 8.26 8.26 0 0 1 2.38.35 5.49 5.49 0 0 1 2.07 1.17z" fill="#093f68"/><path d="m228.9 128.92h9.87v3h-6.67v2.71h6.3v3h-6.3v3h7v3h-10.2z" fill="#093f68"/><path d="m240.93 136.18a8.23 8.23 0 0 1 .58-3.16 7 7 0 0 1 1.63-2.41 7.39 7.39 0 0 1 2.48-1.53 9.57 9.57 0 0 1 6.28 0 7.34 7.34 0 0 1 2.49 1.53 7.13 7.13 0 0 1 1.61 2.39 8.9 8.9 0 0 1 0 6.32 6.94 6.94 0 0 1 -1.63 2.41 7 7 0 0 1 -2.49 1.53 9.57 9.57 0 0 1 -6.28 0 7.09 7.09 0 0 1 -2.48-1.53 6.81 6.81 0 0 1 -1.63-2.41 8.16 8.16 0 0 1 -.56-3.14zm3.32 0a5.37 5.37 0 0 0 .32 1.88 4.12 4.12 0 0 0 2.34 2.45 5.09 5.09 0 0 0 3.71 0 4.31 4.31 0 0 0 1.43-1 4.38 4.38 0 0 0 .91-1.48 5.62 5.62 0 0 0 0-3.74 4.16 4.16 0 0 0 -2.34-2.47 5.09 5.09 0 0 0 -3.71 0 4.24 4.24 0 0 0 -1.43 1 4.18 4.18 0 0 0 -.91 1.49 5.34 5.34 0 0 0 -.32 1.87z" fill="#093f68"/><path d="m171.29 101.17h-37.12a1 1 0 0 1 0-2h37.12a1 1 0 0 1 0 2z" fill="#dfeaef"/><rect fill="#fff" height="32.87" rx="1.75" width="46.91" x="97.75" y="131.77"/><path d="m142.9 165.65h-43.41a2.75 2.75 0 0 1 -2.74-2.75v-29.38a2.75 2.75 0 0 1 2.74-2.75h43.41a2.75 2.75 0 0 1 2.75 2.75v29.38a2.75 2.75 0 0 1 -2.75 2.75zm-43.41-32.88a.75.75 0 0 0 -.74.75v29.38a.75.75 0 0 0 .74.75h43.41a.76.76 0 0 0 .75-.75v-29.38a.76.76 0 0 0 -.75-.75z" fill="#093f68"/><path d="m138 158.25h-32.5a1 1 0 0 1 -1-1v-17.32a1 1 0 0 1 2 0v16.32h31.5a1 1 0 0 1 0 2z" fill="#093f68"/><path d="m111.08 153.91a1 1 0 0 1 -.5-1.87l22.5-13a1 1 0 0 1 1.36.37 1 1 0 0 1 -.36 1.36l-22.5 13a1 1 0 0 1 -.5.14z" fill="#093f68"/><path d="m132.36 146.25a1.13 1.13 0 0 1 -.44-.1 1 1 0 0 1 -.46-1.34l2.34-4.81-6.09-.6a1 1 0 0 1 .19-2l7.52.74a1 1 0 0 1 .78.51 1 1 0 0 1 0 .92l-3 6.14a1 1 0 0 1 -.84.54z" fill="#093f68"/></svg>